<svg width="24" height="24" viewBox="0 0 24 24" fill="none" xmlns="http://www.w3.org/2000/svg">
<path d="M2.06171 11.6528C1.97837 11.8774 1.97837 12.1243 2.06171 12.3488C2.87341 14.317 4.25123 15.9998 6.02048 17.184C7.78974 18.3681 9.87076 19.0002 11.9997 19.0002C14.1287 19.0002 16.2097 18.3681 17.9789 17.184C19.7482 15.9998 21.126 14.317 21.9377 12.3488C22.0211 12.1243 22.0211 11.8774 21.9377 11.6528C21.126 9.6847 19.7482 8.00189 17.9789 6.81775C16.2097 5.63361 14.1287 5.00146 11.9997 5.00146C9.87076 5.00146 7.78974 5.63361 6.02048 6.81775C4.25123 8.00189 2.87341 9.6847 2.06171 11.6528Z" stroke="#0D3B36" stroke-width="2" stroke-linecap="round"/>
</svg>
